<svg xmlns="http://www.w3.org/2000/svg" width="12" height="12" fill="none" viewBox="0 0 12 12">
  <g clip-path="url(#a)">
    <path fill="#000" fill-rule="evenodd" d="M8.842.76c.694 0 1.266.204 1.694.63.437.428.648.997.648 1.684 0 .723-.214 1.312-.664 1.74l-.002.002c-.452.421-1.112.614-1.942.614H7.95v1.14h.626c.83 0 1.49.197 1.942.627.451.42.666 1.006.666 1.729 0 .687-.211 1.254-.647 1.68-.428.428-1 .634-1.695.634-.545 0-1.002-.102-1.353-.325l-.002-.002a1.854 1.854 0 0 1-.72-.877l-.003-.005a3.275 3.275 0 0 1-.194-1.147v-.962H5.43v.962c0 .414-.069.8-.21 1.152-.138.367-.38.662-.722.879h-.001c-.343.223-.796.325-1.34.325-.694 0-1.27-.205-1.706-.63l-.002-.003c-.427-.427-.633-.995-.633-1.681 0-.723.214-1.309.666-1.729.46-.429 1.12-.627 1.942-.627h.626V5.43h-.626c-.821 0-1.48-.193-1.94-.612l-.004-.004c-.45-.428-.664-1.017-.664-1.74 0-.686.206-1.254.633-1.681l.002-.002C1.887.965 2.463.76 3.158.76c.543 0 .996.101 1.339.325.341.217.585.511.722.879.141.353.211.738.211 1.152v.962h1.14v-.962c0-.412.064-.796.194-1.147l.002-.005c.146-.365.388-.659.72-.877l.003-.002C7.839.862 8.297.76 8.842.76ZM3.424 7.922c-.474 0-.773.1-.943.256l-.003.003c-.167.146-.268.38-.268.745 0 .38.1.603.25.727.183.144.411.221.698.221s.534-.08.714-.306c.115-.163.178-.377.178-.656v-.99h-.626Zm4.526.99c0 .319.08.552.217.722.138.15.351.24.675.24.289 0 .512-.078.685-.22l.003-.003c.158-.125.26-.348.26-.725 0-.365-.101-.6-.268-.745l-.003-.003c-.17-.156-.469-.256-.943-.256H7.95v.99ZM5.43 6.57h1.14V5.43H5.43v1.14ZM3.158 2.126c-.288 0-.518.077-.701.223-.149.124-.247.348-.247.725 0 .361.099.603.267.759.17.149.471.245.947.245h.626v-.99c0-.32-.084-.546-.228-.705l-.006-.008c-.128-.155-.334-.249-.658-.249Zm5.684 0c-.257 0-.494.066-.675.253-.137.159-.217.387-.217.709v.99h.626c.476 0 .776-.096.946-.245.168-.156.268-.397.269-.759 0-.377-.103-.6-.261-.725l-.003-.003c-.173-.143-.396-.22-.685-.22Z" clip-rule="evenodd"/>
  </g>
  <defs>
    <clipPath id="a">
      <path fill="#fff" d="M0 0h12v12H0z"/>
    </clipPath>
  </defs>
</svg>
